:SAMPLES-PER-SECOND 30
:FULLY-SPECIFIED
:DEGREES
169
root  -52.2904 38.8391 1.83175 122.121 85.9216 128.273
RightUpLeg  18.4289 0.60246 -6.68615
RightLeg  16.1664 3.66507 -0.319831
RightFoot  -22.7486 0.273496 4.21725
RightToes  4.01633e-009 0 -3.6325e-017
Spine  6.80202 0.697709 1.41703
Spine1  13.6284 1.74806 -3.16491
HEad  -10.1524 -3.15982 3.0849
LeftShoulder1  0.0710629 3.28383 -26.0721
LeftArm  -10.7464 2.38247 -35.3987
LeftForeArm  84.5708 -79.4957 -93.2211
LeftHand  0.0208715 3.19381 -2.09874
RightShoulder  -0.329581 -4.54344 24.6184
RightArm  -12.7388 -10.5248 39.4535
RightForeArm  111.344 73.8539 136.69
RightHand  -0.0819897 -3.46835 -3.98995
LeftUpLeg  -16.4326 1.44358 -0.826106
LeftLeg  18.1814 -0.915844 -0.00360219
LeftFoot  3.93335 -0.0952399 0.558683
LeftToes  -1.95724e-009 9.62483e-011 3.51777e-011
170
root  -51.1741 38.6174 1.38964 103.995 85.3323 111.317
RightUpLeg  17.3416 4.3973 -7.75337
RightLeg  24.3349 1.08526 0.523813
RightFoot  -22.4208 0.763706 9.67587
RightToes  4.01633e-009 0 -3.6325e-017
Spine  7.90819 1.10302 -0.664904
Spine1  13.63 1.93501 -3.48741
HEad  -10.1518 -2.59229 3.54382
LeftShoulder1  0.0424252 3.37302 -26.1974
LeftArm  -10.3866 2.53185 -35.3665
LeftForeArm  83.8018 -79.4876 -92.7004
LeftHand  0.0210178 2.96879 -1.60957
RightShoulder  -0.349772 -4.59442 25.0305
RightArm  -13.0391 -10.5647 39.6898
RightForeArm  109.757 74.4928 134.442
RightHand  -0.073238 -3.19475 -3.0358
LeftUpLeg  -15.5505 1.86288 -2.4606
LeftLeg  22.8896 -0.0570207 0.306541
LeftFoot  0.380177 -0.149005 1.43305
LeftToes  -1.95724e-009 9.62483e-011 3.51777e-011
171
root  -50.13 38.6163 0.911204 87.7229 84.9935 95.453
RightUpLeg  13.1856 3.45523 -10.2757
RightLeg  34.797 2.06193 1.25525
RightFoot  -17.0966 0.6115 14.3745
RightToes  4.01633e-009 0 -3.6325e-017
Spine  8.11438 1.49768 -1.86257
Spine1  13.8035 2.05175 -3.94624
HEad  -9.16553 -2.20965 2.72144
LeftShoulder1  0.0254235 3.42658 -26.7951
LeftArm  -10.3146 2.85483 -35.4624
LeftForeArm  80.685 -79.5183 -89.1481
LeftHand  0.0232174 2.86981 -1.87442
RightShoulder  -0.2954 -4.42958 24.6872
RightArm  -13.0432 -10.0941 40.6253
RightForeArm  106.839 75.4127 130.699
RightHand  -0.0873584 -3.08199 -3.70715
LeftUpLeg  -14.0571 2.74824 -3.61223
LeftLeg  24.7375 0.501557 0.59704
LeftFoot  -2.39729 -0.13862 1.93378
LeftToes  -1.95724e-009 9.62483e-011 3.51777e-011
172
root  -49.085 38.82 0.428082 76.1264 84.4832 84.2446
RightUpLeg  7.45908 2.75266 -12.0493
RightLeg  45.8532 1.27494 1.07062
RightFoot  -6.35044 -0.452077 11.5596
RightToes  4.01633e-009 0 -3.6325e-017
Spine  8.73784 1.45854 -2.76536
Spine1  13.0737 1.86818 -3.98986
HEad  -7.5604 -1.55044 1.59051
LeftShoulder1  -0.0448322 3.63981 -26.8204
LeftArm  -10.4054 3.94363 -35.3512
LeftForeArm  79.7283 -79.5149 -88.159
LeftHand  0.0316784 2.46575 -1.82691
RightShoulder  -0.204767 -4.14708 24.2758
RightArm  -12.7411 -9.82811 41.519
RightForeArm  105.88 75.8902 128.609
RightHand  -0.0889669 -2.592 -3.16518
LeftUpLeg  -11.327 3.37269 -4.59674
LeftLeg  24.0797 0.858358 0.769821
LeftFoot  -4.175 -0.0685459 1.48397
LeftToes  -1.95724e-009 9.62483e-011 3.51777e-011
173
root  -48.005 39.0316 0.0469799 66.7962 84.2554 74.8652
RightUpLeg  1.30791 2.33449 -12.3628
RightLeg  54.7546 0.983697 1.14805
RightFoot  1.76245 -0.623018 5.08559
RightToes  4.01633e-009 0 -3.6325e-017
Spine  8.28356 1.37392 -3.47505
Spine1  13.0244 1.65914 -3.87522
HEad  -6.53277 -0.873458 1.35993
LeftShoulder1  -0.055357 3.6731 -26.4976
LeftArm  -10.7083 5.04149 -34.9599
LeftForeArm  80.4521 -79.5044 -89.2175
LeftHand  0.042059 2.0613 -1.89887
RightShoulder  -0.248831 -4.27863 24.7676
RightArm  -11.8151 -9.57869 41.5682
RightForeArm  104.484 76.0088 127.802
RightHand  -0.117556 -2.60012 -4.40647
LeftUpLeg  -8.82156 4.90257 -4.95613
LeftLeg  22.9616 0.500519 0.582624
LeftFoot  -6.01235 -0.0126106 1.0694
LeftToes  -1.95724e-009 9.62483e-011 3.51777e-011
174
root  -46.9601 39.2651 -0.292448 60.2829 84.3601 68.73
RightUpLeg  -3.02366 1.04206 -12.1246
RightLeg  59.693 1.92759 3.07829
RightFoot  0.565153 -0.67358 6.48637
RightToes  4.01633e-009 0 -3.6325e-017
Spine  8.56165 1.42671 -4.08352
Spine1  12.7599 1.33412 -3.23664
HEad  -5.44091 -0.949882 0.799931
LeftShoulder1  -0.0214263 3.56912 -26.4686
LeftArm  -10.6649 5.80833 -35.0173
LeftForeArm  81.7799 -79.5049 -90.547
LeftHand  0.0187351 2.39721 -1.27962
RightShoulder  -0.294173 -4.42232 24.8291
RightArm  -11.4347 -10.1058 41.3996
RightForeArm  104.59 75.9507 128.07
RightHand  -0.131909 -2.29244 -4.56608
LeftUpLeg  -5.68315 6.64227 -4.6861
LeftLeg  21.3479 -0.473653 -0.00113478
LeftFoot  -7.4288 0.00501481 1.15882
LeftToes  -1.95724e-009 9.62483e-011 3.51777e-011
175
root  -45.8929 39.4773 -0.583922 47.9205 84.6299 56.2389
RightUpLeg  -7.48072 -0.0512081 -10.6873
RightLeg  61.2996 2.55683 4.53942
RightFoot  -0.0830159 -0.812051 8.24174
RightToes  4.01633e-009 0 -3.6325e-017
Spine  8.04958 1.49851 -3.83196
Spine1  12.9051 1.29963 -3.21416
HEad  -4.80951 -1.23203 0.60095
LeftShoulder1  0.00260473 3.49565 -26.1863
LeftArm  -10.9593 6.78696 -35.3386
LeftForeArm  83.5929 -79.5186 -91.9539
LeftHand  0.0296052 2.58779 -1.8428
RightShoulder  -0.315556 -4.48421 25.0424
RightArm  -11.2578 -10.8482 40.984
RightForeArm  105.525 75.8356 128.754
RightHand  -0.123372 -2.36117 -4.32847
LeftUpLeg  -2.98865 7.84375 -3.68027
LeftLeg  19.6979 -0.840829 -0.61764
LeftFoot  -8.92422 0.0332107 0.945842
LeftToes  -1.95724e-009 9.62483e-011 3.51777e-011
176
root  -44.8453 39.6514 -0.874211 43.1788 84.9768 51.351
RightUpLeg  -11.1634 -1.76172 -9.27627
RightLeg  59.9133 2.55751 4.30441
RightFoot  -1.50929 -0.784694 8.96084
RightToes  4.01633e-009 0 -3.6325e-017
Spine  7.83495 1.19312 -4.38735
Spine1  12.7104 0.628194 -2.13581
HEad  -3.62559 0.177201 1.46307
LeftShoulder1  -0.0501612 3.65741 -26.4725
LeftArm  -11.1814 6.96782 -35.5728
LeftForeArm  84.1703 -79.5374 -92.0882
LeftHand  0.0458541 2.12316 -2.0985
RightShoulder  -0.277915 -4.37283 24.7284
RightArm  -11.4033 -11.69 41.3193
RightForeArm  106.331 75.7012 129.464
RightHand  -0.123092 -2.35356 -4.27645
LeftUpLeg  -0.293599 7.94249 -3.11239
LeftLeg  17.7696 -0.847001 -1.12944
LeftFoot  -10.1603 0.0555669 0.570918
LeftToes  -1.95724e-009 9.62483e-011 3.51777e-011
